# xmcd
#
# Track frame offsets:
#	150
#	17315
#	39882
#	57282
#	74247
#
# Disc length: 1243 seconds
#
# Revision: 0
# Processed by: cddbd v1.5.2PL0 Copyright (c) Steve Scherf et al.
# Submitted via: EasyCDDAExtractor 16.0.1.1
#
DISCID=3a04d905
DTITLE=Sara Grace and The Soul - 10.000 Steps
DYEAR=2019
DGENRE=Blues
TTITLE0=Came And Went
TTITLE1=10,000 Steps
TTITLE2=Nothing Can Stop Me
TTITLE3=Work It On Out
TTITLE4=What I Came For
EXTD=
EXTT0=
EXTT1=
EXTT2=
EXTT3=
EXTT4=
PLAYORDER=
